# xmcd
#
# Track frame offsets: 
#        150
#        14037
#        41009
#        57895
#        92100
#        104607
#        120132
#        146574
#        158441
#        190272
#
# Disc length: 2809 seconds
#
# Revision: 0
# Processed by: cddbd v1.5.2PL0 Copyright (c) Steve Scherf et al.
# Submitted via: ExactAudioCopyFreeDBPlugin 1.0
#
DISCID=7f0af70a
DTITLE=Fat Vinny and The Wiseguys - The Blues you can't refuse
DYEAR=2000
DGENRE=Blues
TTITLE0=There's a lot of blues around
TTITLE1=You can't refuse the blues
TTITLE2=Old School Guys
TTITLE3=Not Enough Blood
TTITLE4=Sweat
TTITLE5=Hootch
TTITLE6=The River
TTITLE7=1:30 Blues
TTITLE8=The Phone Call
TTITLE9=Rainy Day Women
EXTD=
EXTT0=
EXTT1=
EXTT2=
EXTT3=
EXTT4=
EXTT5=
EXTT6=
EXTT7=
EXTT8=
EXTT9=
PLAYORDER=
